<?xml version="1.0" encoding="UTF-8" standalone="no"?>
<svg
   xmlns:dc="http://purl.org/dc/elements/1.1/"
   xmlns:cc="http://creativecommons.org/ns#"
   xmlns:rdf="http://www.w3.org/1999/02/22-rdf-syntax-ns#"
   xmlns:svg="http://www.w3.org/2000/svg"
   xmlns="http://www.w3.org/2000/svg"
   xmlns:sodipodi="http://sodipodi.sourceforge.net/DTD/sodipodi-0.dtd"
   xmlns:inkscape="http://www.inkscape.org/namespaces/inkscape"
   inkscape:export-ydpi="89"
   inkscape:export-xdpi="89"
   inkscape:export-filename="/home/luis/Workspace/eclipse-workspace/sindsbarra/src/img/logo1.png"
   sodipodi:docname="logo.svg"
   inkscape:version="1.0 (6e3e5246a0, 2020-05-07)"
   id="svg8"
   version="1.1"
   viewBox="0 0 210 297"
   height="297mm"
   width="210mm">
  <defs
     id="defs2">
    <filter
       height="1.0008755"
       y="-0.00043777076"
       width="1.0001701"
       x="-8.506986e-05"
       id="filter1135"
       style="color-interpolation-filters:sRGB"
       inkscape:collect="always">
      <feGaussianBlur
         id="feGaussianBlur1137"
         stdDeviation="0.0077198742"
         inkscape:collect="always" />
    </filter>
  </defs>
  <sodipodi:namedview
     inkscape:window-maximized="1"
     inkscape:window-y="27"
     inkscape:window-x="1433"
     inkscape:window-height="713"
     inkscape:window-width="1299"
     showguides="true"
     showgrid="false"
     inkscape:document-rotation="0"
     inkscape:current-layer="layer1"
     inkscape:document-units="mm"
     inkscape:cy="436.15541"
     inkscape:cx="374.37349"
     inkscape:zoom="0.70710678"
     inkscape:pageshadow="2"
     inkscape:pageopacity="0.0"
     borderopacity="1.0"
     bordercolor="#666666"
     pagecolor="#ffffff"
     id="base" />
  <metadata
     id="metadata5">
    <rdf:RDF>
      <cc:Work
         rdf:about="">
        <dc:format>image/svg+xml</dc:format>
        <dc:type
           rdf:resource="http://purl.org/dc/dcmitype/StillImage" />
        <dc:title />
      </cc:Work>
    </rdf:RDF>
  </metadata>
  <g
     id="layer1"
     inkscape:groupmode="layer"
     inkscape:label="Layer 1">
    <g
       inkscape:export-ydpi="89"
       inkscape:export-xdpi="89"
       id="g53">
      <rect
         style="fill:#fe0002;fill-opacity:1;fill-rule:evenodd;stroke:#eb0002;stroke-width:1.23237;stroke-miterlimit:4;stroke-dasharray:none;stroke-opacity:1;paint-order:stroke markers fill"
         id="rect970"
         width="184.54486"
         height="28.733448"
         x="11.164663"
         y="106.28749" />
      <text
         xml:space="preserve"
         style="font-style:normal;font-variant:normal;font-weight:bold;font-stretch:normal;font-size:58.0557px;line-height:1.25;font-family:sans-serif;-inkscape-font-specification:'sans-serif Bold';white-space:pre;inline-size:0;fill:#ffffff;fill-opacity:1;stroke:#e60002;stroke-width:1.14649;stroke-miterlimit:4;stroke-dasharray:none;stroke-opacity:1;filter:url(#filter1135)"
         x="13.732161"
         y="268.65155"
         id="text978"
         transform="matrix(0.66380112,0,0,0.41540458,18.86515,22.068939)"><tspan
           id="tspan976"
           x="13.732161"
           y="268.65155"
           style="font-style:normal;font-variant:normal;font-weight:bold;font-stretch:normal;font-size:58.0557px;font-family:sans-serif;-inkscape-font-specification:'sans-serif Bold';fill:#ffffff;fill-opacity:1;stroke:#e60002;stroke-width:1.14649;stroke-miterlimit:4;stroke-dasharray:none;stroke-opacity:1">B</tspan></text>
      <text
         xml:space="preserve"
         style="font-weight:bold;font-size:10.1405px;line-height:1.25;font-family:sans-serif;-inkscape-font-specification:'sans-serif Bold';text-align:center;text-anchor:middle;fill:#fe0002;fill-opacity:1;stroke-width:0.253516"
         x="109.20225"
         y="142.51532"
         id="text982"
         transform="scale(0.96951863,1.0314397)"><tspan
           sodipodi:role="line"
           id="tspan980"
           x="109.20225"
           y="142.51532"
           style="fill:#fe0002;fill-opacity:1;stroke-width:0.253516">Sindicato dos Servidores Públicos Municipais de </tspan><tspan
           sodipodi:role="line"
           x="109.20225"
           y="155.19095"
           style="fill:#fe0002;fill-opacity:1;stroke-width:0.253516"
           id="tspan984">São José da Barra MG</tspan></text>
      <path
         id="path1155"
         style="fill:#ffffff;fill-opacity:1;stroke:#e60002;stroke-width:0.602037;stroke-linecap:butt;stroke-linejoin:miter;stroke-miterlimit:4;stroke-dasharray:none;stroke-opacity:1"
         d="m 128.53932,116.2686 -11.12885,0.038 -0.061,17.53718 7.33819,0.0166 0.0214,-6.5838 2.20276,-0.038 c 2.39476,1.61257 3.36623,3.10217 5.70498,6.58901 l 8.49422,0.30196 c -2.44889,-3.04382 -3.64705,-6.40541 -7.31605,-8.46325 2.92677,-0.5459 5.0245,-1.37374 5.74272,-3.2852 1.58496,-5.54618 -4.72599,-6.42597 -10.99841,-6.11256 z m 0.83299,3.67091 c 2.9194,0.42001 3.06393,3.30075 0.0391,3.89686 l -4.62991,-0.005 0.005,-3.88281 z"
         sodipodi:nodetypes="cccccccccccccccc" />
      <path
         sodipodi:nodetypes="cccccccccccccccc"
         d="m 100.17486,116.2686 -11.128845,0.038 -0.06095,17.53718 7.338187,0.0166 0.02137,-6.58378 2.202757,-0.038 c 2.394771,1.61256 3.366241,3.10215 5.704981,6.58901 l 8.49423,0.30195 c -2.44889,-3.04382 -3.64705,-6.4054 -7.31606,-8.46325 2.92677,-0.5459 5.0245,-1.37374 5.74273,-3.28519 1.58495,-5.54619 -4.726,-6.42599 -10.99841,-6.11257 z m 0.83299,3.67091 c 2.9194,0.42001 3.06393,3.30075 0.0391,3.89686 l -4.629889,-0.005 0.0048,-3.88281 z"
         style="fill:#ffffff;fill-opacity:1;stroke:#e60002;stroke-width:0.602037;stroke-linecap:butt;stroke-linejoin:miter;stroke-miterlimit:4;stroke-dasharray:none;stroke-opacity:1"
         id="path1155-0"
         inkscape:transform-center-x="-7.5686074"
         inkscape:transform-center-y="-16.69229" />
      <path
         id="path1181"
         style="fill:#ffffff;fill-opacity:1;stroke:#e60002;stroke-width:0.602037;stroke-linecap:butt;stroke-linejoin:miter;stroke-miterlimit:4;stroke-dasharray:none;stroke-opacity:1"
         d="m 65.79076,116.2208 -10.398923,17.57623 7.275705,0.003 1.784175,-3.19871 11.33344,-0.005 1.768562,3.20444 9.383794,0.0325 -10.709094,-17.62071 z m 4.246129,5.21334 2.881849,4.40572 -5.922316,-0.0247 z"
         sodipodi:nodetypes="ccccccccccccc" />
      <path
         sodipodi:nodetypes="ccccccccccccc"
         d="m 155.08374,116.2208 -10.39892,17.57623 7.27571,0.003 1.78417,-3.19871 11.33345,-0.005 1.76855,3.20444 9.38379,0.0325 -10.70909,-17.62071 z m 4.24613,5.21334 2.88185,4.40572 -5.92231,-0.0247 z"
         style="fill:#ffffff;fill-opacity:1;stroke:#e60002;stroke-width:0.602037;stroke-linecap:butt;stroke-linejoin:miter;stroke-miterlimit:4;stroke-dasharray:none;stroke-opacity:1"
         id="path1181-0" />
      <path
         style="fill:#fe0000;fill-opacity:1;stroke:#e60002;stroke-width:0.94521;stroke-linecap:butt;stroke-linejoin:miter;stroke-miterlimit:4;stroke-dasharray:none;stroke-opacity:1"
         d="m 16.94288,89.68167 12.340665,0.013 0.265338,13.14267 c 0.814986,1.53619 0.574814,3.32125 4.772057,3.31238 2.724723,0.26012 3.813524,-1.95101 4.477097,-3.59756 0.350392,-2.895446 0.996685,-5.645075 -0.03785,-9.223017 C 26.636736,76.139762 14.578648,80.0688 17.329242,53.365054 24.737429,36.015536 52.837845,42.560353 51.564251,57.5418 l -0.185165,10.49555 -11.812121,-0.08241 -0.56558,-8.663701 c 0.210902,-5.972979 -3.4815,-8.767219 -7.947544,-6.575495 -2.542402,2.894151 -2.681821,5.449027 -1.569614,10.610091 5.36358,14.665923 17.529822,15.052623 21.114022,26.807678 1.05311,4.856928 1.266774,11.056077 0.373046,15.643957 -7.624152,8.52397 -7.632837,7.66115 -16.089793,8.51526 -10.675166,-0.10955 -17.008561,-4.39129 -18.176822,-13.53652 z"
         id="path903"
         sodipodi:nodetypes="cccccccccccccccccc" />
      <path
         style="fill:#fd0002;fill-opacity:1;stroke:#e60002;stroke-width:0.94521;stroke-linecap:butt;stroke-linejoin:miter;stroke-miterlimit:4;stroke-dasharray:none;stroke-opacity:1"
         d="m 56.775306,113.11615 12.971468,-0.001 -0.06371,-66.06893 -12.806552,-0.0091 z"
         id="path905"
         sodipodi:nodetypes="ccccc" />
      <path
         style="fill:#fd0100;fill-opacity:1;stroke:#e60002;stroke-width:0.94521;stroke-linecap:butt;stroke-linejoin:miter;stroke-miterlimit:4;stroke-dasharray:none;stroke-opacity:1"
         d="m 75.933276,113.25801 12.5922,0.026 -0.394274,-56.878962 c 1.469921,-4.739004 8.345244,-3.639344 9.456038,-0.422824 l -0.0024,57.261246 12.16908,0.01 C 109.71755,93.675162 109.07025,75.45205 109.61476,53.981833 101.52394,39.615294 79.936551,43.167874 75.909959,54.231524 Z"
         id="path907"
         sodipodi:nodetypes="ccccccccc" />
      <path
         style="fill:#fe0002;fill-opacity:1;stroke:#e60002;stroke-width:0.94521;stroke-linecap:butt;stroke-linejoin:miter;stroke-miterlimit:4;stroke-dasharray:none;stroke-opacity:1"
         d="m 155.3699,101.33109 0.0582,-12.410624 12.98957,-0.054 -0.12377,13.201074 c 0.92397,2.00591 5.43687,6.14555 9.43284,0.35919 1.50687,-4.078169 1.24502,-6.331611 -0.34713,-9.368719 -5.71179,-12.208811 -16.67146,-11.824085 -20.87259,-24.799717 -1.24006,-5.294554 -1.4696,-10.492657 -0.24715,-15.552177 1.6706,-12.770087 31.48891,-13.467113 33.66187,1.121583 l 0.23653,14.108739 -12.3907,0.0115 -0.2254,-12.2102 c -0.92522,-4.646024 -6.87868,-4.512152 -9.10522,-1.251263 -1.09198,3.891159 -0.82508,6.819966 0.0306,9.331754 7.54502,13.295097 16.24937,13.68273 21.50693,26.118882 1.86775,5.9665 1.56835,10.550828 -0.0385,14.332718 -3.2831,15.62011 -34.02606,14.06466 -34.56612,-2.93873 z"
         id="path911"
         sodipodi:nodetypes="cccccccccccccccccc" />
      <path
         id="path936"
         style="fill:#fc0004;fill-opacity:1;stroke:#e60002;stroke-width:0.945198;stroke-linecap:butt;stroke-linejoin:miter;stroke-miterlimit:4;stroke-dasharray:none;stroke-opacity:1"
         d="m 128.0792,46.029899 c -0.49458,0.002 -0.98885,0.0051 -1.48245,0.01028 -3.65714,0.06005 -7.3116,0.219275 -10.96785,0.314772 -0.0629,22.128006 -0.12391,44.256086 -0.18671,66.384089 6.29415,-0.0517 11.40339,0.1241 18.88482,-0.086 4.79752,0.87985 15.43326,-4.14801 15.92752,-12.34042 0.0374,-13.874145 0.0803,-27.748449 0.11399,-41.622405 -0.31834,-2.860279 -1.33778,-5.739912 -3.38551,-7.824693 -2.25814,-2.333828 -5.42835,-3.496042 -8.556,-4.094557 -3.40569,-0.646653 -6.8857,-0.751702 -10.34781,-0.741093 z m 8.79044,10.375186 c -0.032,15.102876 0.0923,30.020612 0.0602,45.123485 -2.46053,2.9618 -4.27043,2.79 -7.79915,2.73624 -0.0138,-17.080588 -0.21384,-32.891417 -0.2277,-49.97202 2.51797,-1.108314 6.33008,-0.386988 7.96664,2.112295 z"
         sodipodi:nodetypes="sccccccccssccccc" />
      <g
         id="g1371"
         transform="matrix(0.602037,0,0,0.602037,5.8183733,-0.76172271)">
        <path
           sodipodi:nodetypes="cccc"
           id="path1301"
           d="m 83.042232,176.73917 0.08166,14.07429 24.713628,-0.002 -0.0233,-14.20864"
           style="fill:none;stroke:#ffffff;stroke-width:1.71263;stroke-linecap:butt;stroke-linejoin:miter;stroke-miterlimit:4;stroke-dasharray:none;stroke-opacity:1" />
        <path
           style="fill:none;stroke:#ffffff;stroke-width:1.70178;stroke-linecap:butt;stroke-linejoin:miter;stroke-miterlimit:4;stroke-dasharray:none;stroke-opacity:1"
           d="m 114.85847,176.72059 0.18028,14.28405 23.95523,0.0486 -0.0679,-14.51798"
           id="path1301-1"
           sodipodi:nodetypes="cccc" />
        <path
           sodipodi:nodetypes="cccc"
           id="path1301-1-1"
           d="m 150.73988,176.75133 0.18171,13.94767 23.33569,0.0182 -0.0477,-13.9661"
           style="fill:none;stroke:#ffffff;stroke-width:1.68834;stroke-linecap:butt;stroke-linejoin:miter;stroke-miterlimit:4;stroke-dasharray:none;stroke-opacity:1" />
        <path
           style="fill:none;stroke:#fffeff;stroke-width:1.6292;stroke-linecap:butt;stroke-linejoin:miter;stroke-miterlimit:4;stroke-dasharray:none;stroke-opacity:1"
           d="m 248.07813,176.35807 c 6.5298,13.19617 16.18137,16.92751 30.64373,17.78836 10.5372,-0.32961 24.30335,-4.53439 28.20314,-17.66459"
           id="path1299-6"
           sodipodi:nodetypes="ccc" />
        <path
           sodipodi:nodetypes="ccc"
           id="path1299-6-2"
           d="m 18.676983,176.99648 c 6.178592,10.60169 11.581172,14.26685 27.295219,15.54525 18.928285,-0.58907 18.873698,-2.24628 30.572615,-15.32693"
           style="fill:none;stroke:#fffeff;stroke-width:1.54843;stroke-linecap:butt;stroke-linejoin:miter;stroke-miterlimit:4;stroke-dasharray:none;stroke-opacity:1" />
        <path
           sodipodi:nodetypes="cccc"
           id="path1363"
           d="m 180.30347,176.76791 -0.002,13.40635 33.509,-0.16334 c 5.93096,-0.0827 17.02431,-2.6698 25.27859,-13.89059"
           style="fill:none;stroke:#ffffff;stroke-width:1.6575;stroke-linecap:butt;stroke-linejoin:miter;stroke-miterlimit:4;stroke-dasharray:none;stroke-opacity:1" />
      </g>
    </g>
  </g>
</svg>
